# xmcd CD database file
#
# Track frame offsets:
#	150
#	11952
#	23182
#	32670
#	45041
#	55543
#	66320
#	74449
#	86332
#	95484
#	104226
#	117348
#	127464
#	138267
#	151051
#	161415
#	174030
#	187688
#	200895
#	213855
#	225163
#	237514
#	249637
#	260659
#	273542
#
# Disc length: 3780 seconds
#
# Revision: 2
# Processed by: cddbd v1.5.2PL0 Copyright (c) Steve Scherf et al.
# Submitted via: CDex 1.94
#
DISCID=5a0ec219
DTITLE=Various Artist - In The Beginning =Mod Story 01
DYEAR=2012
DGENRE=R&B
TTITLE0=The Mar Keys - Last Night
TTITLE1=The Marvelettes - Please Mr. Postman
TTITLE2=Rosco Gordon - Just A Little Bit
TTITLE3=Bobby Parker - Watch Your Step
TTITLE4=Carl Lester and The Showstoppers - When You See Me Hurt
TTITLE5=Dave "Bobby" Cortez - Hurricane
TTITLE6=Nat Kendrick and The Swans - (Do The) Mashed Potatoes, Pt. 1
TTITLE7=Bobby Bland - Turn On Your Love Light
TTITLE8=James Ray - If You Gotta Make A Fool Of Somebody
TTITLE9=Chris Kenner - I Like It Like That (Part 1)
TTITLE10=The Contours - Whole Lotta Woman
TTITLE11=Bill Black - My Girl Josephine
TTITLE12=Bruce Channel - Hey! Baby
TTITLE13=The Miracles - Shop Around
TTITLE14=The Isley Brothers - Shout
TTITLE15=Paul Gayten - The Hunch
TTITLE16=Bo Diddley - I'm A Man
TTITLE17=Mary Wells - Bye Bye Baby
TTITLE18=Muddy Waters - Got My Mojo Working
TTITLE19=James Booker - Gonzo
TTITLE20=Arthur Alexander - You Better Move On
TTITLE21=The Shirelles - Baby It's You
TTITLE22=The Chantels - Well, I Told You
TTITLE23=Ray Charles - Unchain My Heart
TTITLE24=Phil Upchurch - You Can't Sit Down (Part One)
EXTD=
EXTT0=
EXTT1=
EXTT2=
EXTT3=
EXTT4=
EXTT5=
EXTT6=
EXTT7=
EXTT8=
EXTT9=
EXTT10=
EXTT11=
EXTT12=
EXTT13=
EXTT14=
EXTT15=
EXTT16=
EXTT17=
EXTT18=
EXTT19=
EXTT20=
EXTT21=
EXTT22=
EXTT23=
EXTT24=
PLAYORDER=
